<?xml version="1.0" encoding="UTF-8" standalone="no"?>
<!-- Created with Inkscape (http://www.inkscape.org/) -->

<svg
   xmlns:dc="http://purl.org/dc/elements/1.1/"
   xmlns:cc="http://creativecommons.org/ns#"
   xmlns:rdf="http://www.w3.org/1999/02/22-rdf-syntax-ns#"
   xmlns:svg="http://www.w3.org/2000/svg"
   xmlns="http://www.w3.org/2000/svg"
   xmlns:sodipodi="http://sodipodi.sourceforge.net/DTD/sodipodi-0.dtd"
   xmlns:inkscape="http://www.inkscape.org/namespaces/inkscape"
   version="1.1"
   id="svg3772"
   width="230"
   height="230"
   viewBox="0 0 230 230"
   sodipodi:docname="LIDSOLlogoColor.svg"
   inkscape:version="0.92.2 (5c3e80d, 2017-08-06)"
   inkscape:export-filename="/home/pablovc/Documentos/logo/LIDSOLlogoColor.png"
   inkscape:export-xdpi="1161.1639"
   inkscape:export-ydpi="1161.1639">
  <metadata
     id="metadata3778">
    <rdf:RDF>
      <cc:Work
         rdf:about="">
        <dc:format>image/svg+xml</dc:format>
        <dc:type
           rdf:resource="http://purl.org/dc/dcmitype/StillImage" />
        <dc:title></dc:title>
      </cc:Work>
    </rdf:RDF>
  </metadata>
  <defs
     id="defs3776" />
  <sodipodi:namedview
     pagecolor="#ffffff"
     bordercolor="#666666"
     borderopacity="1"
     objecttolerance="10"
     gridtolerance="10"
     guidetolerance="10"
     inkscape:pageopacity="0"
     inkscape:pageshadow="2"
     inkscape:window-width="1024"
     inkscape:window-height="703"
     id="namedview3774"
     showgrid="false"
     inkscape:zoom="1.03"
     inkscape:cx="23.990191"
     inkscape:cy="118.17651"
     inkscape:window-x="0"
     inkscape:window-y="0"
     inkscape:window-maximized="1"
     inkscape:current-layer="svg3772"
     showguides="true" />
  <path
     style="fill:#0066ff;stroke:#0066ff;stroke-width:1px;stroke-linecap:butt;stroke-linejoin:miter;stroke-opacity:1;fill-opacity:1"
     d="m 28.314607,79.662921 v 41.573039 h 15.617977 c 0,0 4.044944,0.44943 4.044944,5.73033 0,5.2809 -4.157303,4.94382 -4.157303,4.94382 H 21.797753 c -0.898876,0 -4.94382,-0.5618 -4.494382,-4.94382 0.449438,-4.38202 0,-47.528088 0,-47.528088 0,0 0.449438,-3.370786 2.921348,-3.258427 2.47191,0.11236 4.94382,0 4.94382,0 0.786517,0 3.483146,0.224719 3.146068,3.483146 z"
     id="path3786"
     inkscape:connector-curvature="0"
     sodipodi:nodetypes="cccsccscscc" />
  <path
     style="fill:#0066ff;stroke:#0066ff;stroke-width:1px;stroke-linecap:butt;stroke-linejoin:miter;stroke-opacity:1"
     d="m 61.797753,131.68539 c 0,-0.90587 0,-55.842693 0,-55.842693 h -6.516854 c 0,0 -4.606742,-0.224719 -5.168539,3.595505 -0.561798,3.820225 0,48.089888 0,48.089888 0,0 -0.22472,4.38202 4.494382,4.7191 4.719101,0.33708 7.191011,0.11236 7.191011,-0.5618 z"
     id="path3790"
     inkscape:connector-curvature="0"
     sodipodi:nodetypes="cccscsc" />
  <path
     style="fill:#0066ff;stroke:#0066ff;stroke-width:1px;stroke-linecap:butt;stroke-linejoin:miter;stroke-opacity:1"
     d="m 73.932584,87.191011 v 33.483149 h 11.460674 c 0,0 10.337079,-0.5618 10.561798,-15.39326 C 96.179775,90.449438 87.752809,88.426967 84.94382,87.64045 82.134831,86.853933 73.932584,87.191011 73.932584,87.191011 Z"
     id="path3794"
     inkscape:connector-curvature="0"
     sodipodi:nodetypes="cccssc" />
  <ellipse
     id="path3879"
     cx="161.85393"
     cy="103.59549"
     rx="14.460207"
     ry="18.336613"
     style="fill:#0066ff;stroke:#0066ff;stroke-width:0.96428651;stroke-miterlimit:4;stroke-dasharray:none;stroke-opacity:1" />
  <path
     style="fill:#0066ff;stroke:#0066ff;stroke-width:1px;stroke-linecap:butt;stroke-linejoin:miter;stroke-opacity:1"
     d="m 167.30337,75.280899 c 0,0 20.89888,3.033708 21.23596,28.651681 0.33707,25.61798 -17.97753,27.64045 -17.97753,27.64045 l 45.8427,-0.11236 c 0,0 3.41601,-0.95918 3.04124,-4.42725 -0.3893,-3.6025 -0.34462,-5.34803 -4.16484,-5.57275 H 200.33708 V 80.337079 c 0,0 0.44944,-4.943821 -5.2809,-5.16854 -5.73034,-0.224719 -27.75281,0.11236 -27.75281,0.11236 z"
     id="path4686"
     inkscape:connector-curvature="0"
     sodipodi:nodetypes="csccscccsc" />
  <text
     xml:space="preserve"
     style="font-style:normal;font-weight:normal;font-size:13.33333333px;line-height:1.25;font-family:sans-serif;letter-spacing:0px;word-spacing:0px;fill:#000000;fill-opacity:1;stroke:none;"
     x="24.099724"
     y="57.423824"
     id="text4690"><tspan
       sodipodi:role="line"
       id="tspan4688"
       x="24.099724"
       y="92.814453" /></text>
  <text
     xml:space="preserve"
     style="font-style:normal;font-weight:normal;font-size:9.33333397px;line-height:1.25;font-family:sans-serif;letter-spacing:0px;word-spacing:0px;fill:#757575;fill-opacity:1;stroke:none"
     x="17.174515"
     y="147.45152"
     id="text4694"><tspan
       sodipodi:role="line"
       id="tspan4692"
       x="17.174515"
       y="147.45152">Laboratorio de Investigación y Desarrollo</tspan><tspan
       sodipodi:role="line"
       x="17.174515"
       y="159.11819"
       id="tspan4696">de Software Libre</tspan></text>
  <path
     style="fill:#0066ff;fill-opacity:1;stroke:#0066ff;stroke-width:0.27700832;stroke-miterlimit:4;stroke-dasharray:none;stroke-opacity:1"
     d="m 20.01054,130.89076 c -0.30471,-0.12603 -0.842858,-0.5402 -1.195885,-0.92036 l -0.641868,-0.69122 -0.101927,-25.22507 -0.101926,-25.225068 0.615768,-0.914564 0.615768,-0.914563 3.47395,-0.07717 c 3.175874,-0.07055 3.53744,-0.02723 4.213899,0.50487 l 0.739949,0.582044 v 21.852058 21.852063 l 8.428973,0.0808 c 8.002456,0.0767 8.468521,0.10959 9.210526,0.65097 1.166116,0.85082 2.028091,2.74495 2.028091,4.45658 0,1.77591 -0.326321,2.68335 -1.284166,3.57105 l -0.735792,0.68191 -12.355672,-0.0176 c -6.795619,-0.01 -12.604979,-0.12068 -12.909688,-0.24672 z"
     id="path4717"
     inkscape:connector-curvature="0" />
  <path
     style="fill:#0066ff;fill-opacity:1;stroke:#0066ff;stroke-width:0.27700832;stroke-miterlimit:4;stroke-dasharray:none;stroke-opacity:1"
     d="m 53.528545,131.40793 c -1.050559,-0.3279 -1.566513,-0.73481 -2.236881,-1.76409 -0.514709,-0.79029 -0.535725,-1.67417 -0.60596,-25.48477 -0.06814,-23.09996 -0.04176,-24.726147 0.415512,-25.612118 0.845517,-1.63821 1.875645,-1.96255 6.233216,-1.96255 h 3.81453 l -0.0706,27.493078 -0.0706,27.49307 -3.324099,0.0484 c -1.828255,0.0266 -3.698061,-0.0683 -4.155125,-0.211 z"
     id="path4719"
     inkscape:connector-curvature="0" />
  <path
     style="fill:#0066ff;fill-opacity:1;stroke:#0066ff;stroke-width:0.27700832;stroke-miterlimit:4;stroke-dasharray:none;stroke-opacity:1"
     d="M 74.442672,103.84541 V 87.578038 l 4.501386,0.17394 c 6.305874,0.243667 9.012177,1.071283 11.773452,3.600446 1.707091,1.563593 2.716652,3.218705 3.579947,5.869097 0.947656,2.909389 1.221972,9.342379 0.536343,12.577819 -0.908609,4.28769 -3.286221,7.7171 -6.467124,9.32802 l -1.597134,0.80884 -6.163435,0.0883 -6.163435,0.0883 z"
     id="path4721"
     inkscape:connector-curvature="0" />
  <path
     style="fill:#0066ff;stroke:#0066ff;stroke-width:1px;stroke-linecap:butt;stroke-linejoin:miter;stroke-opacity:1"
     d="m 116.33013,75.280899 h 38.16425 c 0,0 -8.93719,2.173913 -14.49275,10.62802 L 119.591,86.150465 c 0,0 -8.69565,3.381642 -1.57005,8.45411 l 12.07729,5.676325 c 0,0 13.09886,7.13342 11.23189,17.63286 -2.14325,12.05317 -8.21256,12.07729 -14.00966,13.88888 H 88.7939 c 0,0 6.88406,0.84541 14.97585,-9.17874 h 13.40579 c 0,0 7.15967,-0.2352 9.67887,-2.59344 2.5192,-2.35825 3.8477,-7.43071 -1.82863,-10.08772 l -16.30434,-5.91787 c 0,0 2.89855,-9.661845 -4.83092,-17.753632 0,0 3.86473,-9.420291 12.43961,-10.990339 z"
     id="path4737"
     inkscape:connector-curvature="0"
     sodipodi:nodetypes="ccccccsccccccccc" />
  <rect
     id="rect20"
     width="230.09709"
     height="231.06796"
     x="0"
     y="-1.0679612"
     style="fill:none" />
</svg>
