<?xml version="1.0" encoding="utf-8"?>
<svg xmlns="http://www.w3.org/2000/svg" version="1.1" id="svg3772" width="230" height="120" viewBox="15 74 205 60">
  <path style="fill:none;stroke:#DEDDDA;stroke-width:2.7px;stroke-linecap:butt;stroke-linejoin:miter;stroke-opacity:1" d="m 28.314607,79.662921 v 41.573039 h 15.617977 c 0,0 4.044944,0.44943 4.044944,5.73033 0,5.2809 -4.157303,4.94382 -4.157303,4.94382 H 21.797753 c -0.898876,0 -4.94382,-0.5618 -4.494382,-4.94382 0.449438,-4.38202 0,-47.528088 0,-47.528088 0,0 0.449438,-3.370786 2.921348,-3.258427 2.47191,0.11236 4.94382,0 4.94382,0 0.786517,0 3.483146,0.224719 3.146068,3.483146 z" id="path3786"/>
  <path style="fill:none;stroke:#DEDDDA;stroke-width:2.7px;stroke-linecap:butt;stroke-linejoin:miter;stroke-opacity:1" d="m 61.797753,131.68539 c 0,-0.90587 0,-55.842693 0,-55.842693 h -6.516854 c 0,0 -4.606742,-0.224719 -5.168539,3.595505 -0.561798,3.820225 0,48.089888 0,48.089888 0,0 -0.22472,4.38202 4.494382,4.7191 4.719101,0.33708 7.191011,0.11236 7.191011,-0.5618 z" id="path3790"/>
  <path style="fill:none;stroke:#DEDDDA;stroke-width:2.7px;stroke-linecap:butt;stroke-linejoin:miter;stroke-opacity:1" d="m 73.932584,87.191011 v 33.483149 h 11.460674 c 0,0 10.337079,-0.5618 10.561798,-15.39326 C 96.179775,90.449438 87.752809,88.426967 84.94382,87.64045 82.134831,86.853933 73.932584,87.191011 73.932584,87.191011 Z" id="path3794"/>
  <path style="fill:none;stroke:#DEDDDA;stroke-width:2.7px;stroke-linecap:butt;stroke-linejoin:miter;stroke-opacity:1" d="m 88.876404,131.57303 h 37.865166 c 0,0 20.5618,-3.48314 11.91012,-26.17977 0,0 -1.79776,-3.59551 -8.65169,-6.741575 l -13.48315,-4.494381 c 0,0 -5.39325,-4.831462 3.03371,-7.865169 l 20.67416,-0.224719 c 0,0 3.25843,-9.325843 14.26966,-10.786517 H 120 c 0,0 -10,-1.011236 -16.96629,10.898876 0,0 6.06741,4.382023 5.61798,17.640445" id="path3798"/>
  <path style="fill:none;stroke:#DEDDDA;stroke-width:2.7px;stroke-linecap:butt;stroke-linejoin:miter;stroke-opacity:1" d="m 108.65169,103.82022 16.17977,5.8427 c -0.008,-0.0113 10.59192,4.51203 -0.44943,11.46067 0,0 -3.25843,0.89888 -5.50563,1.01124 -2.24719,0.11236 -14.94382,0 -14.94382,0 0,0 -5.617974,8.53932 -15.056176,9.4382" id="path3806"/>
  <ellipse id="path3879" cx="161.85393" cy="103.59549" rx="14.460207" ry="18.336613" style="fill:none;stroke:#DEDDDA;stroke-width:2.6;stroke-miterlimit:4;stroke-dasharray:none;stroke-opacity:1"/>
  <path style="fill:none;stroke:#DEDDDA;stroke-width:2.7px;stroke-linecap:butt;stroke-linejoin:miter;stroke-opacity:1" d="M 165.971 75.383 C 165.971 75.383 186.87 78.417 187.207 104.035 C 187.544 129.653 169.229 131.675 169.229 131.675 L 215.072 131.563 C 215.072 131.563 219.162 130.042 218.787 126.686 C 218.385 123.085 217.769 121.788 213.948 121.563 L 199.005 121.563 L 199.005 80.439 C 199.005 80.439 199.454 75.496 193.724 75.271 C 187.993 75.046 165.971 75.383 165.971 75.383 L 165.971 75.383 Z" id="path4686"/>
</svg>